<?xml version="1.0" encoding="UTF-8"?>
<svg width="210mm" height="297mm" version="1.1" viewBox="0 0 210 297" xmlns="http://www.w3.org/2000/svg" xmlns:cc="http://creativecommons.org/ns#" xmlns:dc="http://purl.org/dc/elements/1.1/" xmlns:rdf="http://www.w3.org/1999/02/22-rdf-syntax-ns#" xmlns:xlink="http://www.w3.org/1999/xlink">
<defs>
<linearGradient id="b" x1="403" x2="411.74" y1="170.35" y2="170.35" gradientTransform="matrix(.51318 0 0 1.001 193.08 652.15)" gradientUnits="userSpaceOnUse">
<stop offset="0"/>
<stop stop-opacity="0" offset="1"/>
</linearGradient>
<linearGradient id="a" x1="403" x2="411.74" y1="170.35" y2="170.35" gradientTransform="matrix(.50567 0 0 1.0007 -615.69 652.14)" gradientUnits="userSpaceOnUse">
<stop offset="0"/>
<stop stop-opacity="0" offset="1"/>
</linearGradient>
</defs>
<metadata>
<rdf:RDF>
<cc:Work rdf:about="">
<dc:format>image/svg+xml</dc:format>
<dc:type rdf:resource="http://purl.org/dc/dcmitype/StillImage"/>
<dc:title/>
</cc:Work>
</rdf:RDF>
</metadata>
<rect x="106.22" y="160.25" width="2.2407" height="19.406" fill="#f7f7f7" stroke-width=".26458"/>
<g transform="matrix(.11621 0 0 .073356 60.181 104.43)" fill="#fff" stroke-opacity="0">
<rect x="396.75" y="761.76" width="9.2585" height="262.93" ry="0" opacity=".033654"/>
<rect transform="scale(-1,1)" x="-415" y="761.71" width="9.123" height="262.84" ry="0" opacity=".033654"/>
</g>
<rect x="106.23" y="162.48" width="2.2451" height="4.268" color="#000000" fill="#4d4d4d" fill-rule="evenodd" stroke-width=".26458"/>
<path d="m106.22 160.27h2.2425" fill="none" stroke="#000" stroke-width=".10583"/>
<path d="m106.22 166.74h2.2425" fill="none" stroke="#000" stroke-width=".10583"/>
<path d="m106.22 162.47h2.2425" fill="none" stroke="#000" stroke-width=".10583"/>
<path d="m107.35 155.19v4.482" fill="none" stroke="#000" stroke-width=".10583"/>
<path d="m108 183.3h-1.2944l0.0333-0.18354 0.0508-0.19934 0.0598-0.19709 0.0687-0.1942 0.0774-0.19077 0.0858-0.18674 0.0265-0.0907-0.0187-0.0259-0.0179-0.0269-0.017-0.0277-0.0162-0.0287-0.0153-0.0296-0.0145-0.0306-0.0137-0.0315-0.0129-0.0325-0.0121-0.0335-0.0113-0.0344-0.0105-0.0354-0.01-0.0364-9e-3 -0.0374-8e-3 -0.0384-7e-3 -0.0394-7e-3 -0.0405-6e-3 -0.0415-5e-3 -0.0426-4e-3 -0.0436-4e-3 -0.0447-3e-3 -0.0457 0.0199-0.0233h0.88744l0.0238 0.0193-3e-3 0.0458-4e-3 0.0447-4e-3 0.0437-5e-3 0.0427-6e-3 0.0416-7e-3 0.0406-7e-3 0.0395-8e-3 0.0385-9e-3 0.0375-0.01 0.0365-0.0104 0.0355-0.0112 0.0345-0.012 0.0336-0.0128 0.0326-0.0136 0.0316-0.0144 0.0307-0.0153 0.0297-0.0161 0.0288-0.0169 0.0279-0.0178 0.0269-0.0186 0.0259 0.017 0.0769 0.0865 0.18637 0.0781 0.19042 0.0695 0.19397 0.0606 0.19685 0.0515 0.19918 0.0424 0.20084z" fill="#333" stroke="#000" stroke-width=".10583"/>
<path d="m106.36 159.67h1.9787v-2.0318l-0.19782-0.97494-0.58934-1.3382a0.21773 0.21773 0 0 0-0.40436 0l-0.58933 1.3382-0.19782 0.97494z" fill="none" stroke="#000" stroke-width=".10583"/>
<path d="m108.33 159.67 0.13192 0.59455v19.375l-0.89535 0.78764a0.39516 0.39516 0 0 1-0.45178 0l-0.89535-0.78764v-19.375l0.13191-0.59455" fill="none" stroke="#000" stroke-width=".10583"/>
<path d="m108.47 179.65h-2.2425" fill="none" stroke="#000" stroke-width=".10583"/>
<path d="m107.35 180.49v0.77486" fill="none" stroke="#000" stroke-width=".10583"/>
<path d="m106.22 179.65 0.67569 1.6334" fill="none" stroke="#000" stroke-width=".10583"/>
<path d="m108.47 179.65-0.67569 1.6334" fill="none" stroke="#000" stroke-width=".10583"/>
<path d="m107.4 157.44c0-1.196 6e-3 -2.1743 0.0124-2.174 0.0449 2e-3 0.10553 0.11961 0.3718 0.72173l0.29853 0.67508 0.1926 0.92604 1e-3 2.0257h-0.87643v-2.1746z" fill="#f2f2f2" stroke-width=".26458"/>
<path d="m106.41 158.62v-0.99904l0.19076-0.94128 0.2981-0.67799c0.16397-0.37291 0.30615-0.68673 0.31597-0.69739 0.0185-0.0201 0.0561-0.0426 0.0712-0.0426 6e-3 0 9e-3 0.66301 9e-3 2.1787v2.1787h-0.88471v-0.99905z" fill="#f2f2f2" stroke-width=".26458"/>
<path d="m106.29 160.2c2.6e-4 -8e-3 0.0236-0.11865 0.0518-0.24598l0.0513-0.23151 1.897-4e-3 4e-3 0.0186c0.0163 0.0688 0.1034 0.46524 0.1034 0.47072 0 4e-3 -0.47439 7e-3 -1.0542 7e-3 -0.99867 0-1.0542-8e-4 -1.0537-0.0145z" fill="#f2f2f2" stroke-width=".26458"/>
<path d="m107.22 180.47c-0.0722-0.0268-0.0663-0.022-0.50369-0.41937l-0.41405-0.37621 0.51845-4e-3c0.28515-3e-3 0.75047-3e-3 1.034 0l0.51559 4e-3 -0.42161 0.38309c-0.28877 0.26234-0.43976 0.39034-0.47919 0.40624-0.0681 0.0276-0.18464 0.0304-0.24954 6e-3z" fill="#efefef" stroke-width=".26458"/>
<g transform="matrix(.11728 0 0 .073345 59.737 104.44)" stroke-opacity="0">
<rect x="396.75" y="761.76" width="9.2585" height="262.93" ry="0" fill="url(#b)" opacity=".033654"/>
<rect transform="scale(-1,1)" x="-415" y="761.71" width="9.123" height="262.84" ry="0" fill="url(#a)" opacity=".033654"/>
</g>
<g transform="matrix(.13664 0 0 .13664 82.393 40.996)" fill="#005288">
<path d="m183.56 949.9h-3.8684l-0.14333 0.10719v3.4413h1.0709v-1.2905l0.10222-0.0916h2.8387c0.71676 0 1.0528-0.19285 1.0528-0.68766v-0.79015c-1.4e-4 -0.49563-0.33604-0.68861-1.0529-0.68861m0 1.2723c0 0.23312-0.15423 0.28155-0.49025 0.28155h-2.3366l-0.11407-0.11092v-0.73717l0.10221-0.0935h2.3485c0.33602 0 0.49025 0.0479 0.49025 0.2821v0.37797z"/>
<polyline transform="matrix(.13794 0 0 .13794 167.65 954.99)" points="99.081 19.813 105.76 29.6 105.39 30.548 90.618 30.548 86.847 35.187 108.84 35.187 110.36 36.115 113.78 40.824 122.66 40.824 103.19 14.775"/>
<g transform="matrix(.13794 0 0 .13794 154.9 970.72)">
<polyline points="187.42 35.757 187.42 28.833 188.22 28.143 203.08 28.143 203.08 23.734 179.52 23.734 179.52 40.823 214.27 40.823 214.27 36.435 188.25 36.435"/>
<rect x="179.52" y="15.094" width="35.113" height="4.848"/>
</g>
<path d="m180.73 965.4h3.9022c-0.0601-0.49619-0.36803-0.63385-1.1491-0.63385h-2.7946c-0.88133 0-1.1625 0.17201-1.1625 0.83897v1.8712c0 0.66765 0.28113 0.83967 1.1625 0.83967h2.7946c0.79249 0 1.096-0.14885 1.1167-0.66352h-3.8697l-0.11477-0.108v-2.0722"/>
<path d="m183.52 943.1h-2.8388l-0.0836-0.092v-0.60723l0.0832-0.0643h3.8268l0.0523-0.12787c-0.13036-0.33534-0.46791-0.49177-1.0947-0.49177h-2.6583c-0.88076 0-1.1623 0.17201-1.1623 0.83897v0.39232c0 0.66778 0.28155 0.83952 1.1623 0.83952h2.8324l0.089 0.0781v0.63482l-0.0725 0.099h-3.2399v-3e-3h-0.84863s-0.0971 0.0487-0.0934 0.0715c0.0724 0.46652 0.39025 0.59867 1.1511 0.59867h2.895c0.88064 0 1.1706-0.17201 1.1706-0.83966v-0.48874c0-0.66654-0.28995-0.83828-1.1706-0.83828"/>
<path d="m180.79 981.03h-1.5934l-0.0865 0.16456 1.7695 1.2899c0.33521-0.19409 0.69994-0.3908 1.0967-0.58489"/>
<path d="m182.21 983.46 1.5553 1.1342h1.6128l0.0668-0.15022-2.3224-1.6999c-0.30845 0.22637-0.61316 0.46542-0.9125 0.71593"/>
<path d="m180.55 984.59h-1.4417l-0.1218-0.19077c0.98023-0.94644 5.456-4.5034 11.282-4.956 0 0-5.0962 0.56584-9.7184 5.1467"/>
</g>
</svg>
